<svg id="Capa_1" enable-background="new 0 0 512 512" height="512" viewBox="0 0 512 512" width="512" xmlns="http://www.w3.org/2000/svg" xmlns:xlink="http://www.w3.org/1999/xlink"><linearGradient id="SVGID_1_" gradientUnits="userSpaceOnUse" x1="278.5" x2="278.5" y1="376" y2="0"><stop offset="0" stop-color="#ffc2cc"/><stop offset="1" stop-color="#fff2f4"/></linearGradient><linearGradient id="SVGID_2_" gradientUnits="userSpaceOnUse" x1="195.5" x2="195.5" y1="512" y2="121"><stop offset="0" stop-color="#fd3a84"/><stop offset="1" stop-color="#ffa68d"/></linearGradient><g><g><g><path d="m333.227 201.361c-7.411-5.13-16.758-6.748-26.777-3.691l-52.412 17.461c-4.249-11.309-15.059-19.131-28.038-19.131h-151c-16.816 0-30 13.184-30 30v120c0 16.816 13.184 30 30 30h151c12.979 0 23.789-7.852 28.037-19.131l51.445 17.08c9.351 3.86 20.599 2.063 28.389-3.779 7.705-5.977 12.129-14.766 12.129-24.17v-120c0-9.404-4.424-18.193-12.773-24.639zm133.773-141.361h-16v-45c0-6.064-3.662-11.543-9.258-13.857-5.566-2.314-12.041-1.055-16.348 3.252l-55.605 55.605h-83.789c-24.814 0-45 20.186-45 45v31c0 8.291 6.709 15 15 15h90c8.262 0 15 6.738 15 15v90c0 8.291 6.709 15 15 15h91c24.814 0 45-20.186 45-45v-121c0-24.814-20.186-45-45-45z" fill="url(#SVGID_1_)"/></g></g><g><g><path d="m346 121h-301c-24.901 0-45 20.1-45 45v241c0 24.899 20.099 45 45 45h15v45c0 8.388 7.038 15 15 15 3.9 0 7.8-1.499 10.499-4.501l55.802-55.499h204.699c24.901 0 45-20.101 45-45v-241c0-24.9-20.099-45-45-45zm-15 225c0 4.799-2.401 9.3-6.301 12.299-3.389 2.543-9.039 3.586-13.499 1.8l-70.2-23.399v9.3c0 8.399-6.599 15-15 15h-151c-8.401 0-15-6.601-15-15v-120c0-8.401 6.599-15 15-15h151c8.401 0 15 6.599 15 15v9.3l70.201-23.401c4.799-1.5 9.598-.899 13.499 1.8 3.9 3.001 6.301 7.5 6.301 12.301v120z" fill="url(#SVGID_2_)"/></g></g></g></svg>